<?xml version="1.0" standalone="no"?>
<!DOCTYPE svg PUBLIC "-//W3C//DTD SVG 1.1//EN" "http://www.w3.org/Graphics/SVG/1.1/DTD/svg11.dtd">
<svg xmlns="http://www.w3.org/2000/svg" version="1.1" viewBox="0 0 252 108" width="252" height="108">
  <defs>
    <style>
      .cls-1 {
        fill: #fff;
      }

      .cls-2 {
        fill: #f44c7f;
      }
    </style>
  </defs>
  <!-- Generator: Adobe Illustrator 28.7.1, SVG Export Plug-In . SVG Version: 1.2.0 Build 142)  -->
  <g>
    <g id="Layer_1">
      <g>
        <path class="cls-1" d="M243.1,78c1.5-4.2.6-6.9-.5-8.5-1.2-1.8-3.2-2.8-5.2-2.8s-1.3.1-1.9.3c-2.3-6.3-7.2-11.6-11-15.8-.5-.6-1-1.1-1.4-1.6.3-1.4.5-2.9.7-4.3.3-5.2-1.4-8.3-2.9-9.9-1.9-2-4.4-3-7.2-3s-1.7.1-2.6.3c2.1-8.3-.6-12.5-3.6-14.6-1.9-1.3-4.1-1.9-6.5-1.9s-.5,0-.8,0c-2.5.1-4.7,1.4-6.2,3.4-1.5,2.1-2,4.6-1.3,7,.5,2.1.8,4.3.8,6.3,0,3.9-.6,6.5-.9,7.5-1.9-.8-4.1-1.2-6.5-1.2-8.2,0-17.1,4.5-22.4,13.1,0-2.3-1-4.5-2.7-6,2.9-1.8,5.2-4.8,6.3-8.5,2.1-7.2-1.5-14.6-7.9-16.4-1-.3-1.9-.4-3-.4-3.8,0-7.3,1.9-9.8,5-.6-2.5-1.5-4.7-2.8-6.5-2.5-3.2-6-5-10.3-5h-2.2c-3.4,0-7.4.3-9.7,2.9-2.3-1.9-5.1-2.8-8.3-2.8h-2.2c-3.9,0-8.5.5-10.7,4.1-.7,1.2-1,2.5-.9,3.9-.8-.5-1.7-.9-2.6-1.1-1-.3-1.9-.4-3-.4-5.6,0-10.7,4.2-12.4,10.2-1,3.3-.8,6.8.6,9.8.6,1.3,1.3,2.5,2.2,3.4-1.5.8-3,2-4.4,3.9-.8-2.6-2.5-4.7-5.9-6-1.6-.6-3.3-.9-5.1-.9-4.8,0-9.8,2.1-14.2,5.8-.9-2.1-2.5-3.8-5.4-5-1.5-.6-3.3-1-5.2-1-4.9,0-10,2.3-14.6,6.2-.4-.7-.9-1.4-1.4-2-2.8-3.2-7.1-5-12-5s-9.1.2-11.3,4.9c-.9,2-.6,4.3.8,5.9.7.9,1.1,1.9,1.2,2.9.2,3.7.1,4.5-.2,8.9-.5,5.9-.6,14.3.2,20.1.8,6,5.2,9.8,11,9.8s4.7-.6,7.1-1.7c2.2-1,3.4-3.4,3-5.7h0v-1.4c.3-6.6,2-12.1,3.9-16.4-.6,4.3-1.3,8.9-1,14,.3,6.2,4.9,10.4,11.4,10.4s5.5-.8,8-2.1c1.7-.9,2.8-2.7,2.8-4.5v-1.6c.3-6.6,2-12.1,3.9-16.3-.8,5.4-3,20.8,9.3,24.3,1.3.4,2.8.6,4.2.6,3.9,0,8-1.6,11.6-4.3,2.1,2.1,4.3,3,6.1,3.4,1.2.3,2.3.3,3.4.3,4.5,0,8.5-1.9,11.7-4.4,2.3,2.5,4.9,3.6,7.2,4.2,1.2.3,2.2.3,3.3.3,4.3,0,7.9-1.7,10.7-3.6,1.7,1.6,3.8,2.7,6.2,3.2,1.2.3,2.2.3,3.3.3,3.6,0,7.4-1.3,10.9-3.7,2,1.9,4.1,2.8,5.8,3.2,1.2.3,2.3.3,3.4.3,5.2,0,9.8-2.5,13.3-5.7,3.3,2.6,7.4,4.4,11.8,5.1,2,.3,4,.5,5.9.5,7.3,0,13.7-2.1,19.3-6.4.1.2.3.4.5.6,3,3.8,7.6,6.3,12.7,6.7,1.1.1,2.2.2,3.3.2,4.5,0,9-1.2,12.9-3.4,1.4,2.1,3.9,3.4,6.5,3.4,4.4,0,8-3.6,8-8s-1.8-5.8-4.3-7.2l-.3-.3Z"/>
        <g>
          <path class="cls-2" d="M199.8,43.4c1-.8,3.3-3.6,5.2-9.1,2.5-6.5,1.9-10.4-.5-12.2-1.2-.8-2.7-1-4.1-1-1.9.1-3.3,2.1-2.8,3.9.5,2.1,1,4.7,1,7.6,0,6.7-1.5,10-1.5,10,.3,1,1.7,1.4,2.7.6h0Z"/>
          <path class="cls-2" d="M90.8,42.6c3.6,1,7.7-1.8,8.9-6.3,1.3-4.5-.7-9-4.3-10-3.6-1-7.7,1.8-8.9,6.3-1.3,4.5.7,9,4.3,10Z"/>
          <path class="cls-2" d="M153.3,42.6c3.6,1,7.7-1.8,8.9-6.3,1.3-4.5-.7-9-4.3-10-3.6-1-7.7,1.8-8.9,6.3-1.3,4.5.7,9,4.3,10Z"/>
          <path class="cls-2" d="M239.4,82.3c-1.6,0-2.8,1.4-2.8,2.8s1.4,2.9,2.8,2.9,2.8-1.3,2.8-2.8-1.2-2.8-2.8-2.8h0ZM239.4,87.5c-1.4,0-2.4-1-2.4-2.4s1-2.4,2.4-2.4,2.4,1.1,2.4,2.4-1,2.4-2.4,2.4Z"/>
          <path class="cls-2" d="M240.7,84.6c0-.4-.3-1-1.1-1h-1.2v3h.5v-1h.7l.5,1h.5l-.5-1.1c.4-.1.7-.6.7-1h0ZM239.6,85.2h-.8v-1.2h.8c.5,0,.5.3.5.6s0,.6-.5.6h0Z"/>
          <path class="cls-2" d="M237.2,72c-1.2,3.5-3.6,7-7.2,9.4,1-2.1,1.6-4.6,1.6-7.6,0-9.1-9.4-17-14.1-22.7.5-2.2,1-4.3,1.1-6.2.6-9.1-7.3-8.7-10.2-4.5-2.4,3.6-.5,8.9,2.9,14.4-1,4.4-6.1,23.1-22.6,25.6-2.6.4-10.5,1.1-12.7-9.7,8.6.3,15.9-4.1,18.4-8.9,3.2-6.1,2.7-13.2-2.9-16.2-7.2-4.3-26.1,1.6-27.8,22.3-.3,3.1.1,5.8,1,8-1.4,2.5-3.6,4.8-6.1,4.4-2.5-.3-4.3-3.6-3.5-12,.6-6.7,2.2-12.1,3.1-15,.4-1.4,0-2.9-1.2-3.7-4.7-3.1-10.7-2.1-12.9,7.1-1.5,6.3-1.7,14.6,0,20.9-1.4,2-3.4,3.6-5.4,3.2-4.1-.6-5.5-9.4.6-31.9,6.7-24.9-.1-29.4-5.8-29.4-8.5-.4-9.2,1.6-8.2,3.4,1.7,3.1,2.9,6.5,2.7,10-.3,5.2-1.5,11.3-3.4,23.8-1.5,9.4-1.7,16.2-.8,21-1.4,2-3.4,3.4-5.4,3.1-4.1-.6-5.5-9.4.6-31.9,6.7-24.9-.1-29.4-5.8-29.4-8.5-.4-9.2,1.6-8.2,3.4,1.7,3.1,2.9,6.5,2.7,10-.3,5.2-1.5,11.3-3.4,23.8-1.2,7.6-1.6,13.5-1.2,18-1.4,3-3.8,6.1-6.8,5.6-2.5-.3-4.3-3.6-3.5-12,.6-6.7,2.2-12.1,3.1-15,.4-1.4,0-2.9-1.2-3.7-4.7-3.1-10.7-2.1-12.9,7.1-1.4,6-1.7,13.7-.3,19.8-1.6,2.6-3.7,4.5-5.8,3.9-2.5-.8-3.2-4.7-1.9-15.3,1.4-11.3,3.3-16.4-1.4-18.1-6.8-2.5-17.3,3.5-23.3,16,1.6-10.2,2.9-14.3-1.6-16-5.7-2.4-14.9,2.2-21.2,12,2.8-18.7-18.4-13.2-16.8-11.2,1.4,1.7,2.3,3.8,2.3,6,.2,4.1.1,5.2-.2,9.7-.5,6.2-.5,14,.1,18.9.8,5.7,5.8,6.3,10.8,4.1,0,0-.1-.8-.1-2.5,1-18.6,11.6-31.8,15.1-29.8,1.6.8.5,5.1-.8,14-.6,4.3-1.2,8.6-1,13.3.3,6.2,7,6.7,11.8,4.1v-1.7c1-18.6,11.6-31.6,15.1-29.7,1.6.8.5,5.1-.8,14-1.6,10.5-.5,17.1,5.6,18.9,5.4,1.7,11.6-2.1,15.3-7,1.3,3.5,3.4,6.1,6.3,6.7,6.1,1.3,12.1-3.3,15.1-7.8,1.2,4.7,3.7,7.1,7.1,7.9,5.2,1.2,10.5-2.1,13.8-5.9,1.4,3.4,3.6,5.2,6.5,5.9,5.4,1.2,10.7-2.3,14-6.1,1.3,3.1,3.3,5.4,6,6,6.3,1.4,12.2-3.4,15.3-8,3.2,4.6,8.6,6.9,12.7,7.6,24.5,3.9,33.1-20.6,35.4-26.7,3.3,5.2,5.6,11.8,5,17.3-1,7.6-7.4,7.8-10,2.5-.1-.6-4,.5-1.6,3.3,2.2,2.9,5.7,4.6,9.4,5,8.9,1.2,18.1-4,20.8-11.3,1.7-4.5-.8-5.1-1-4.6h.3ZM175.6,65.2c.5-6.1,2.5-12,5.4-15.7,2.9-4,6.2-2.7,6.2,3s-4.6,13.8-11.6,15.5c-.1-.8-.1-1.7,0-2.9h0Z"/>
        </g>
      </g>
    </g>
  </g>
</svg>